<svg width="11" height="12" viewBox="0 0 11 12" fill="none" xmlns="http://www.w3.org/2000/svg">
<path d="M2.98647 5.58163C2.36472 5.90852 0.828613 6.0538 0.828613 6.0538V6.63495C0.828613 6.63495 2.36472 6.78023 2.98647 7.10712C3.57166 7.43402 4.08369 7.86987 4.44943 8.45101C4.85174 9.03215 5.10776 9.68594 5.29063 10.4487C5.4735 11.2114 5.54664 11.8688 5.54664 11.8688H6.05868C6.05868 11.8688 6.23917 10.8261 6.3147 10.4487C6.49757 9.68594 6.79015 9.03215 7.15589 8.45101C7.52163 7.86987 7.9971 7.43402 8.61885 7.10712C9.24061 6.78023 10.7767 6.63495 10.7767 6.63495V6.0538C10.7767 6.0538 9.24061 5.90852 8.61885 5.58163C8.03367 5.25474 7.52163 4.81888 7.15589 4.23774C6.75358 3.6566 6.49757 3.00282 6.3147 2.24007C6.2308 1.79048 6.05868 0.64502 6.05868 0.64502H5.54664C5.54664 0.64502 5.37664 1.94959 5.29063 2.24007C5.10776 3.00282 4.81517 3.6566 4.44943 4.23774C4.08369 4.81888 3.60823 5.25474 2.98647 5.58163Z" fill="#E0CFBA"/>
</svg>
