<svg width="18" height="20" viewBox="0 0 18 20" fill="none" xmlns="http://www.w3.org/2000/svg">
<path d="M3.957 8.60995C2.909 9.16094 0.319824 9.40583 0.319824 9.40583V10.3854C0.319824 10.3854 2.909 10.6303 3.957 11.1812C4.94335 11.7322 5.80641 12.4669 6.42288 13.4464C7.101 14.426 7.53253 15.528 7.84076 16.8136C8.149 18.0992 8.27229 19.2074 8.27229 19.2074H9.13535C9.13535 19.2074 9.43958 17.4498 9.56688 16.8136C9.87511 15.528 10.3683 14.426 10.9848 13.4464C11.6012 12.4669 12.4026 11.7322 13.4506 11.1812C14.4986 10.6303 17.0878 10.3854 17.0878 10.3854V9.40583C17.0878 9.40583 14.4986 9.16094 13.4506 8.60995C12.4643 8.05896 11.6012 7.3243 10.9848 6.34476C10.3066 5.36523 9.87511 4.26325 9.56688 2.9776C9.42546 2.21979 9.13535 0.289062 9.13535 0.289062H8.27229C8.27229 0.289062 7.98574 2.48797 7.84076 2.9776C7.53253 4.26325 7.03935 5.36523 6.42288 6.34476C5.80641 7.3243 5.005 8.05896 3.957 8.60995Z" fill="#E0CFBA"/>
</svg>
